# xmcd CD database file
# Copyright (C) 1993-1998 Ti Kan
# 
# Track frame offsets:
#     150
#     10938
#     21860
#     34055
#     46528
#     59868
#     71243
#     82925
#     94898
#     107500
# 
# Disc length: 1609 seconds
# 
# Revision: 1
# Processed by: cddbd v1.4b41PL1 Copyright (c) Steve Scherf et al.
# Submitted via: DiscPlay 4.0.4
# 
DISCID=7b06470a
DTITLE=Charley Pride - Charley Pride
DYEAR=1900
DGENRE=
TTITLE0=Just Between You And Me
TTITLE1=Does My Ring Hurt Your Finger
TTITLE2=Gone On The Other Hand
TTITLE3=The Day The World Stood Still
TTITLE4=The Snakes Crawl At night
TTITLE5=The Easy Part's Over
TTITLE6=I Know One
TTITLE7=Before I Met You
TTITLE8=Too hard To Say I'm Sorry
TTITLE9=Let The Chips Fall
EXTD=
EXTT0=
EXTT1=
EXTT2=
EXTT3=
EXTT4=
EXTT5=
EXTT6=
EXTT7=
EXTT8=
EXTT9=
PLAYORDER=
